<?xml version="1.0" encoding="UTF-8" standalone="no"?>
<svg
   xmlns:dc="http://purl.org/dc/elements/1.1/"
   xmlns:cc="http://creativecommons.org/ns#"
   xmlns:rdf="http://www.w3.org/1999/02/22-rdf-syntax-ns#"
   xmlns:svg="http://www.w3.org/2000/svg"
   xmlns="http://www.w3.org/2000/svg"
   xmlns:sodipodi="http://sodipodi.sourceforge.net/DTD/sodipodi-0.dtd"
   xmlns:inkscape="http://www.inkscape.org/namespaces/inkscape"
   width="70.89mm"
   height="99.39mm"
   viewBox="0 0 70.89 99.39"
   version="1.1"
   id="svg3610"
   inkscape:version="0.48.5 r10040"
   sodipodi:docname="tea-light-side-squares.svg">
  <metadata
     id="metadata4233">
    <rdf:RDF>
      <cc:Work
         rdf:about="">
        <dc:format>image/svg+xml</dc:format>
        <dc:type
           rdf:resource="http://purl.org/dc/dcmitype/StillImage" />
      </cc:Work>
    </rdf:RDF>
  </metadata>
  <defs
     id="defs4231" />
  <sodipodi:namedview
     pagecolor="#ffffff"
     bordercolor="#666666"
     borderopacity="1"
     objecttolerance="10"
     gridtolerance="10"
     guidetolerance="10"
     inkscape:pageopacity="0"
     inkscape:pageshadow="2"
     inkscape:window-width="1514"
     inkscape:window-height="751"
     id="namedview4229"
     showgrid="false"
     inkscape:zoom="1.3476121"
     inkscape:cx="125.59252"
     inkscape:cy="228.35382"
     inkscape:window-x="0"
     inkscape:window-y="0"
     inkscape:window-maximized="0"
     inkscape:current-layer="svg3610" />
  <g
     transform="translate(35.445,33.39) scale(1,-1)"
     id="g3612" />
  <g
     transform="translate(35.445,33.39) scale(1,-1)"
     id="g3614" />
  <path
     inkscape:connector-curvature="0"
     style="fill:#cccccc;stroke:#191919;stroke-width:0.34999999;stroke-miterlimit:4;stroke-dasharray:none"
     d="m 69.77386,96.08152 0,0 -13.75,0 0,0 13.75,0 z"
     id="MultiTransform" />
  <path
     inkscape:connector-curvature="0"
     style="fill:#cccccc;stroke:#191919;stroke-width:0.34999999;stroke-miterlimit:4;stroke-dasharray:none"
     d="m 69.77386,85.081525 0,0 0,10.999995 0,0 0,-10.999995 z"
     id="path3712" />
  <path
     inkscape:connector-curvature="0"
     style="fill:#cccccc;stroke:#191919;stroke-width:0.34999999;stroke-miterlimit:4;stroke-dasharray:none"
     d="m 56.02386,96.08152 0,0 0,3 0,0 0,-3 z"
     id="path3714" />
  <path
     inkscape:connector-curvature="0"
     style="fill:#cccccc;stroke:#191919;stroke-width:0.34999999;stroke-miterlimit:4;stroke-dasharray:none"
     d="m 66.77386,85.081525 0,0 3,0 0,0 -3,0 z"
     id="path3720" />
  <path
     inkscape:connector-curvature="0"
     style="fill:#cccccc;stroke:#191919;stroke-width:0.34999999;stroke-miterlimit:4;stroke-dasharray:none"
     d="m 56.02386,99.08152 0,0 -8,0 0,0 8,0 z"
     id="path3722" />
  <path
     inkscape:connector-curvature="0"
     style="fill:#cccccc;stroke:#191919;stroke-width:0.34999999;stroke-miterlimit:4;stroke-dasharray:none"
     d="m 28.14886,90.08152 0,-7.999995 0,0 0,7.999995 0,0 z"
     id="path3724" />
  <path
     inkscape:connector-curvature="0"
     style="fill:#cccccc;stroke:#191919;stroke-width:0.34999999;stroke-miterlimit:4;stroke-dasharray:none"
     d="m 20.14886,90.08152 8,0 0,0 -8,0 0,0 z"
     id="path3726" />
  <path
     inkscape:connector-curvature="0"
     style="fill:#cccccc;stroke:#191919;stroke-width:0.34999999;stroke-miterlimit:4;stroke-dasharray:none"
     d="m 20.14886,82.081525 0,7.999995 0,0 0,-7.999995 0,0 z"
     id="path3728" />
  <path
     inkscape:connector-curvature="0"
     style="fill:#cccccc;stroke:#191919;stroke-width:0.34999999;stroke-miterlimit:4;stroke-dasharray:none"
     d="m 28.14886,82.081525 -8,0 0,0 8,0 0,0 z"
     id="path3730" />
  <path
     inkscape:connector-curvature="0"
     style="fill:#cccccc;stroke:#191919;stroke-width:0.34999999;stroke-miterlimit:4;stroke-dasharray:none"
     d="m 39.02386,90.08152 0,-7.999995 0,0 0,7.999995 0,0 z"
     id="path3732" />
  <path
     inkscape:connector-curvature="0"
     style="fill:#cccccc;stroke:#191919;stroke-width:0.34999999;stroke-miterlimit:4;stroke-dasharray:none"
     d="m 31.02386,90.08152 8,0 0,0 -8,0 0,0 z"
     id="path3734" />
  <path
     inkscape:connector-curvature="0"
     style="fill:#cccccc;stroke:#191919;stroke-width:0.34999999;stroke-miterlimit:4;stroke-dasharray:none"
     d="m 31.02386,82.081525 0,7.999995 0,0 0,-7.999995 0,0 z"
     id="path3736" />
  <path
     inkscape:connector-curvature="0"
     style="fill:#cccccc;stroke:#191919;stroke-width:0.34999999;stroke-miterlimit:4;stroke-dasharray:none"
     d="m 39.02386,82.081525 -8,0 0,0 8,0 0,0 z"
     id="path3738" />
  <path
     inkscape:connector-curvature="0"
     style="fill:#cccccc;stroke:#191919;stroke-width:0.34999999;stroke-miterlimit:4;stroke-dasharray:none"
     d="m 49.89886,90.08152 0,-7.999995 0,0 0,7.999995 0,0 z"
     id="path3740" />
  <path
     inkscape:connector-curvature="0"
     style="fill:#cccccc;stroke:#191919;stroke-width:0.34999999;stroke-miterlimit:4;stroke-dasharray:none"
     d="m 41.89886,90.08152 8,0 0,0 -8,0 0,0 z"
     id="path3742" />
  <path
     inkscape:connector-curvature="0"
     style="fill:#cccccc;stroke:#191919;stroke-width:0.34999999;stroke-miterlimit:4;stroke-dasharray:none"
     d="m 41.89886,82.081525 0,7.999995 0,0 0,-7.999995 0,0 z"
     id="path3744" />
  <path
     inkscape:connector-curvature="0"
     style="fill:#cccccc;stroke:#191919;stroke-width:0.34999999;stroke-miterlimit:4;stroke-dasharray:none"
     d="m 49.89886,82.081525 -8,0 0,0 8,0 0,0 z"
     id="path3746" />
  <path
     inkscape:connector-curvature="0"
     style="fill:#cccccc;stroke:#191919;stroke-width:0.34999999;stroke-miterlimit:4;stroke-dasharray:none"
     d="m 60.77386,90.08152 0,-7.999995 0,0 0,7.999995 0,0 z"
     id="path3748" />
  <path
     inkscape:connector-curvature="0"
     style="fill:#cccccc;stroke:#191919;stroke-width:0.34999999;stroke-miterlimit:4;stroke-dasharray:none"
     d="m 52.77386,90.08152 8,0 0,0 -8,0 0,0 z"
     id="path3750" />
  <path
     inkscape:connector-curvature="0"
     style="fill:#cccccc;stroke:#191919;stroke-width:0.34999999;stroke-miterlimit:4;stroke-dasharray:none"
     d="m 52.77386,82.081525 0,7.999995 0,0 0,-7.999995 0,0 z"
     id="path3752" />
  <path
     inkscape:connector-curvature="0"
     style="fill:#cccccc;stroke:#191919;stroke-width:0.34999999;stroke-miterlimit:4;stroke-dasharray:none"
     d="m 60.77386,82.081525 -8,0 0,0 8,0 0,0 z"
     id="path3754" />
  <path
     inkscape:connector-curvature="0"
     style="fill:#cccccc;stroke:#191919;stroke-width:0.34999999;stroke-miterlimit:4;stroke-dasharray:none"
     d="m 17.27386,79.367245 0,-8.000005 0,0 0,8.000005 0,0 z"
     id="path3756" />
  <path
     inkscape:connector-curvature="0"
     style="fill:#cccccc;stroke:#191919;stroke-width:0.34999999;stroke-miterlimit:4;stroke-dasharray:none"
     d="m 9.273863,79.367245 7.999997,0 0,0 -7.999997,0 0,0 z"
     id="path3758" />
  <path
     inkscape:connector-curvature="0"
     style="fill:#cccccc;stroke:#191919;stroke-width:0.34999999;stroke-miterlimit:4;stroke-dasharray:none"
     d="m 9.273863,71.36724 0,8.000005 0,0 0,-8.000005 0,0 z"
     id="path3760" />
  <path
     inkscape:connector-curvature="0"
     style="fill:#cccccc;stroke:#191919;stroke-width:0.34999999;stroke-miterlimit:4;stroke-dasharray:none"
     d="m 17.27386,71.36724 -7.999997,0 0,0 7.999997,0 0,0 z"
     id="path3762" />
  <path
     inkscape:connector-curvature="0"
     style="fill:#cccccc;stroke:#191919;stroke-width:0.34999999;stroke-miterlimit:4;stroke-dasharray:none"
     d="m 28.14886,79.367245 0,-8.000005 0,0 0,8.000005 0,0 z"
     id="path3764" />
  <path
     inkscape:connector-curvature="0"
     style="fill:#cccccc;stroke:#191919;stroke-width:0.34999999;stroke-miterlimit:4;stroke-dasharray:none"
     d="m 20.14886,79.367245 8,0 0,0 -8,0 0,0 z"
     id="path3766" />
  <path
     inkscape:connector-curvature="0"
     style="fill:#cccccc;stroke:#191919;stroke-width:0.34999999;stroke-miterlimit:4;stroke-dasharray:none"
     d="m 20.14886,71.36724 0,8.000005 0,0 0,-8.000005 0,0 z"
     id="path3768" />
  <path
     inkscape:connector-curvature="0"
     style="fill:#cccccc;stroke:#191919;stroke-width:0.34999999;stroke-miterlimit:4;stroke-dasharray:none"
     d="m 28.14886,71.36724 -8,0 0,0 8,0 0,0 z"
     id="path3770" />
  <path
     inkscape:connector-curvature="0"
     style="fill:#cccccc;stroke:#191919;stroke-width:0.34999999;stroke-miterlimit:4;stroke-dasharray:none"
     d="m 39.02386,79.367245 0,-8.000005 0,0 0,8.000005 0,0 z"
     id="path3772" />
  <path
     inkscape:connector-curvature="0"
     style="fill:#cccccc;stroke:#191919;stroke-width:0.34999999;stroke-miterlimit:4;stroke-dasharray:none"
     d="m 31.02386,79.367245 8,0 0,0 -8,0 0,0 z"
     id="path3774" />
  <path
     inkscape:connector-curvature="0"
     style="fill:#cccccc;stroke:#191919;stroke-width:0.34999999;stroke-miterlimit:4;stroke-dasharray:none"
     d="m 31.02386,71.36724 0,8.000005 0,0 0,-8.000005 0,0 z"
     id="path3776" />
  <path
     inkscape:connector-curvature="0"
     style="fill:#cccccc;stroke:#191919;stroke-width:0.34999999;stroke-miterlimit:4;stroke-dasharray:none"
     d="m 39.02386,71.36724 -8,0 0,0 8,0 0,0 z"
     id="path3778" />
  <path
     inkscape:connector-curvature="0"
     style="fill:#cccccc;stroke:#191919;stroke-width:0.34999999;stroke-miterlimit:4;stroke-dasharray:none"
     d="m 49.89886,79.367245 0,-8.000005 0,0 0,8.000005 0,0 z"
     id="path3780" />
  <path
     inkscape:connector-curvature="0"
     style="fill:#cccccc;stroke:#191919;stroke-width:0.34999999;stroke-miterlimit:4;stroke-dasharray:none"
     d="m 41.89886,79.367245 8,0 0,0 -8,0 0,0 z"
     id="path3782" />
  <path
     inkscape:connector-curvature="0"
     style="fill:#cccccc;stroke:#191919;stroke-width:0.34999999;stroke-miterlimit:4;stroke-dasharray:none"
     d="m 41.89886,71.36724 0,8.000005 0,0 0,-8.000005 0,0 z"
     id="path3784" />
  <path
     inkscape:connector-curvature="0"
     style="fill:#cccccc;stroke:#191919;stroke-width:0.34999999;stroke-miterlimit:4;stroke-dasharray:none"
     d="m 49.89886,71.36724 -8,0 0,0 8,0 0,0 z"
     id="path3786" />
  <path
     inkscape:connector-curvature="0"
     style="fill:#cccccc;stroke:#191919;stroke-width:0.34999999;stroke-miterlimit:4;stroke-dasharray:none"
     d="m 60.77386,79.367245 0,-8.000005 0,0 0,8.000005 0,0 z"
     id="path3788" />
  <path
     inkscape:connector-curvature="0"
     style="fill:#cccccc;stroke:#191919;stroke-width:0.34999999;stroke-miterlimit:4;stroke-dasharray:none"
     d="m 52.77386,79.367245 8,0 0,0 -8,0 0,0 z"
     id="path3790" />
  <path
     inkscape:connector-curvature="0"
     style="fill:#cccccc;stroke:#191919;stroke-width:0.34999999;stroke-miterlimit:4;stroke-dasharray:none"
     d="m 52.77386,71.36724 0,8.000005 0,0 0,-8.000005 0,0 z"
     id="path3792" />
  <path
     inkscape:connector-curvature="0"
     style="fill:#cccccc;stroke:#191919;stroke-width:0.34999999;stroke-miterlimit:4;stroke-dasharray:none"
     d="m 60.77386,71.36724 -8,0 0,0 8,0 0,0 z"
     id="path3794" />
  <path
     inkscape:connector-curvature="0"
     style="fill:#cccccc;stroke:#191919;stroke-width:0.34999999;stroke-miterlimit:4;stroke-dasharray:none"
     d="m 17.27386,68.652955 0,-8 0,0 0,8 0,0 z"
     id="path3796" />
  <path
     inkscape:connector-curvature="0"
     style="fill:#cccccc;stroke:#191919;stroke-width:0.34999999;stroke-miterlimit:4;stroke-dasharray:none"
     d="m 9.273863,68.652955 7.999997,0 0,0 -7.999997,0 0,0 z"
     id="path3798" />
  <path
     inkscape:connector-curvature="0"
     style="fill:#cccccc;stroke:#191919;stroke-width:0.34999999;stroke-miterlimit:4;stroke-dasharray:none"
     d="m 9.273863,60.652955 0,8 0,0 0,-8 0,0 z"
     id="path3800" />
  <path
     inkscape:connector-curvature="0"
     style="fill:#cccccc;stroke:#191919;stroke-width:0.34999999;stroke-miterlimit:4;stroke-dasharray:none"
     d="m 17.27386,60.652955 -7.999997,0 0,0 7.999997,0 0,0 z"
     id="path3802" />
  <path
     inkscape:connector-curvature="0"
     style="fill:#cccccc;stroke:#191919;stroke-width:0.34999999;stroke-miterlimit:4;stroke-dasharray:none"
     d="m 28.14886,68.652955 0,-8 0,0 0,8 0,0 z"
     id="path3804" />
  <path
     inkscape:connector-curvature="0"
     style="fill:#cccccc;stroke:#191919;stroke-width:0.34999999;stroke-miterlimit:4;stroke-dasharray:none"
     d="m 20.14886,68.652955 8,0 0,0 -8,0 0,0 z"
     id="path3806" />
  <path
     inkscape:connector-curvature="0"
     style="fill:#cccccc;stroke:#191919;stroke-width:0.34999999;stroke-miterlimit:4;stroke-dasharray:none"
     d="m 20.14886,60.652955 0,8 0,0 0,-8 0,0 z"
     id="path3808" />
  <path
     inkscape:connector-curvature="0"
     style="fill:#cccccc;stroke:#191919;stroke-width:0.34999999;stroke-miterlimit:4;stroke-dasharray:none"
     d="m 28.14886,60.652955 -8,0 0,0 8,0 0,0 z"
     id="path3810" />
  <path
     inkscape:connector-curvature="0"
     style="fill:#cccccc;stroke:#191919;stroke-width:0.34999999;stroke-miterlimit:4;stroke-dasharray:none"
     d="m 39.02386,68.652955 0,-8 0,0 0,8 0,0 z"
     id="path3812" />
  <path
     inkscape:connector-curvature="0"
     style="fill:#cccccc;stroke:#191919;stroke-width:0.34999999;stroke-miterlimit:4;stroke-dasharray:none"
     d="m 31.02386,68.652955 8,0 0,0 -8,0 0,0 z"
     id="path3814" />
  <path
     inkscape:connector-curvature="0"
     style="fill:#cccccc;stroke:#191919;stroke-width:0.34999999;stroke-miterlimit:4;stroke-dasharray:none"
     d="m 31.02386,60.652955 0,8 0,0 0,-8 0,0 z"
     id="path3816" />
  <path
     inkscape:connector-curvature="0"
     style="fill:#cccccc;stroke:#191919;stroke-width:0.34999999;stroke-miterlimit:4;stroke-dasharray:none"
     d="m 39.02386,60.652955 -8,0 0,0 8,0 0,0 z"
     id="path3818" />
  <path
     inkscape:connector-curvature="0"
     style="fill:#cccccc;stroke:#191919;stroke-width:0.34999999;stroke-miterlimit:4;stroke-dasharray:none"
     d="m 49.89886,68.652955 0,-8 0,0 0,8 0,0 z"
     id="path3820" />
  <path
     inkscape:connector-curvature="0"
     style="fill:#cccccc;stroke:#191919;stroke-width:0.34999999;stroke-miterlimit:4;stroke-dasharray:none"
     d="m 41.89886,68.652955 8,0 0,0 -8,0 0,0 z"
     id="path3822" />
  <path
     inkscape:connector-curvature="0"
     style="fill:#cccccc;stroke:#191919;stroke-width:0.34999999;stroke-miterlimit:4;stroke-dasharray:none"
     d="m 41.89886,60.652955 0,8 0,0 0,-8 0,0 z"
     id="path3824" />
  <path
     inkscape:connector-curvature="0"
     style="fill:#cccccc;stroke:#191919;stroke-width:0.34999999;stroke-miterlimit:4;stroke-dasharray:none"
     d="m 49.89886,60.652955 -8,0 0,0 8,0 0,0 z"
     id="path3826" />
  <path
     inkscape:connector-curvature="0"
     style="fill:#cccccc;stroke:#191919;stroke-width:0.34999999;stroke-miterlimit:4;stroke-dasharray:none"
     d="m 60.77386,68.652955 0,-8 0,0 0,8 0,0 z"
     id="path3828" />
  <path
     inkscape:connector-curvature="0"
     style="fill:#cccccc;stroke:#191919;stroke-width:0.34999999;stroke-miterlimit:4;stroke-dasharray:none"
     d="m 52.77386,68.652955 8,0 0,0 -8,0 0,0 z"
     id="path3830" />
  <path
     inkscape:connector-curvature="0"
     style="fill:#cccccc;stroke:#191919;stroke-width:0.34999999;stroke-miterlimit:4;stroke-dasharray:none"
     d="m 52.77386,60.652955 0,8 0,0 0,-8 0,0 z"
     id="path3832" />
  <path
     inkscape:connector-curvature="0"
     style="fill:#cccccc;stroke:#191919;stroke-width:0.34999999;stroke-miterlimit:4;stroke-dasharray:none"
     d="m 60.77386,60.652955 -8,0 0,0 8,0 0,0 z"
     id="path3834" />
  <path
     inkscape:connector-curvature="0"
     style="fill:#cccccc;stroke:#191919;stroke-width:0.34999999;stroke-miterlimit:4;stroke-dasharray:none"
     d="m 17.27386,57.938669 0,-8 0,0 0,8 0,0 z"
     id="path3836" />
  <path
     inkscape:connector-curvature="0"
     style="fill:#cccccc;stroke:#191919;stroke-width:0.34999999;stroke-miterlimit:4;stroke-dasharray:none"
     d="m 9.273863,57.938669 7.999997,0 0,0 -7.999997,0 0,0 z"
     id="path3838" />
  <path
     inkscape:connector-curvature="0"
     style="fill:#cccccc;stroke:#191919;stroke-width:0.34999999;stroke-miterlimit:4;stroke-dasharray:none"
     d="m 9.273863,49.938669 0,8 0,0 0,-8 0,0 z"
     id="path3840" />
  <path
     inkscape:connector-curvature="0"
     style="fill:#cccccc;stroke:#191919;stroke-width:0.34999999;stroke-miterlimit:4;stroke-dasharray:none"
     d="m 17.27386,49.938669 -7.999997,0 0,0 7.999997,0 0,0 z"
     id="path3842" />
  <path
     inkscape:connector-curvature="0"
     style="fill:#cccccc;stroke:#191919;stroke-width:0.34999999;stroke-miterlimit:4;stroke-dasharray:none"
     d="m 28.14886,57.938669 0,-8 0,0 0,8 0,0 z"
     id="path3844" />
  <path
     inkscape:connector-curvature="0"
     style="fill:#cccccc;stroke:#191919;stroke-width:0.34999999;stroke-miterlimit:4;stroke-dasharray:none"
     d="m 20.14886,57.938669 8,0 0,0 -8,0 0,0 z"
     id="path3846" />
  <path
     inkscape:connector-curvature="0"
     style="fill:#cccccc;stroke:#191919;stroke-width:0.34999999;stroke-miterlimit:4;stroke-dasharray:none"
     d="m 20.14886,49.938669 0,8 0,0 0,-8 0,0 z"
     id="path3848" />
  <path
     inkscape:connector-curvature="0"
     style="fill:#cccccc;stroke:#191919;stroke-width:0.34999999;stroke-miterlimit:4;stroke-dasharray:none"
     d="m 28.14886,49.938669 -8,0 0,0 8,0 0,0 z"
     id="path3850" />
  <path
     inkscape:connector-curvature="0"
     style="fill:#cccccc;stroke:#191919;stroke-width:0.34999999;stroke-miterlimit:4;stroke-dasharray:none"
     d="m 39.02386,57.938669 0,-8 0,0 0,8 0,0 z"
     id="path3852" />
  <path
     inkscape:connector-curvature="0"
     style="fill:#cccccc;stroke:#191919;stroke-width:0.34999999;stroke-miterlimit:4;stroke-dasharray:none"
     d="m 31.02386,57.938669 8,0 0,0 -8,0 0,0 z"
     id="path3854" />
  <path
     inkscape:connector-curvature="0"
     style="fill:#cccccc;stroke:#191919;stroke-width:0.34999999;stroke-miterlimit:4;stroke-dasharray:none"
     d="m 31.02386,49.938669 0,8 0,0 0,-8 0,0 z"
     id="path3856" />
  <path
     inkscape:connector-curvature="0"
     style="fill:#cccccc;stroke:#191919;stroke-width:0.34999999;stroke-miterlimit:4;stroke-dasharray:none"
     d="m 39.02386,49.938669 -8,0 0,0 8,0 0,0 z"
     id="path3858" />
  <path
     inkscape:connector-curvature="0"
     style="fill:#cccccc;stroke:#191919;stroke-width:0.34999999;stroke-miterlimit:4;stroke-dasharray:none"
     d="m 49.89886,57.938669 0,-8 0,0 0,8 0,0 z"
     id="path3860" />
  <path
     inkscape:connector-curvature="0"
     style="fill:#cccccc;stroke:#191919;stroke-width:0.34999999;stroke-miterlimit:4;stroke-dasharray:none"
     d="m 41.89886,57.938669 8,0 0,0 -8,0 0,0 z"
     id="path3862" />
  <path
     inkscape:connector-curvature="0"
     style="fill:#cccccc;stroke:#191919;stroke-width:0.34999999;stroke-miterlimit:4;stroke-dasharray:none"
     d="m 41.89886,49.938669 0,8 0,0 0,-8 0,0 z"
     id="path3864" />
  <path
     inkscape:connector-curvature="0"
     style="fill:#cccccc;stroke:#191919;stroke-width:0.34999999;stroke-miterlimit:4;stroke-dasharray:none"
     d="m 49.89886,49.938669 -8,0 0,0 8,0 0,0 z"
     id="path3866" />
  <path
     inkscape:connector-curvature="0"
     style="fill:#cccccc;stroke:#191919;stroke-width:0.34999999;stroke-miterlimit:4;stroke-dasharray:none"
     d="m 60.77386,57.938669 0,-8 0,0 0,8 0,0 z"
     id="path3868" />
  <path
     inkscape:connector-curvature="0"
     style="fill:#cccccc;stroke:#191919;stroke-width:0.34999999;stroke-miterlimit:4;stroke-dasharray:none"
     d="m 52.77386,57.938669 8,0 0,0 -8,0 0,0 z"
     id="path3870" />
  <path
     inkscape:connector-curvature="0"
     style="fill:#cccccc;stroke:#191919;stroke-width:0.34999999;stroke-miterlimit:4;stroke-dasharray:none"
     d="m 52.77386,49.938669 0,8 0,0 0,-8 0,0 z"
     id="path3872" />
  <path
     inkscape:connector-curvature="0"
     style="fill:#cccccc;stroke:#191919;stroke-width:0.34999999;stroke-miterlimit:4;stroke-dasharray:none"
     d="m 60.77386,49.938669 -8,0 0,0 8,0 0,0 z"
     id="path3874" />
  <path
     inkscape:connector-curvature="0"
     style="fill:#cccccc;stroke:#191919;stroke-width:0.34999999;stroke-miterlimit:4;stroke-dasharray:none"
     d="m 17.27386,47.224383 0,-8 0,0 0,8 0,0 z"
     id="path3876" />
  <path
     inkscape:connector-curvature="0"
     style="fill:#cccccc;stroke:#191919;stroke-width:0.34999999;stroke-miterlimit:4;stroke-dasharray:none"
     d="m 9.273863,47.224383 7.999997,0 0,0 -7.999997,0 0,0 z"
     id="path3878" />
  <path
     inkscape:connector-curvature="0"
     style="fill:#cccccc;stroke:#191919;stroke-width:0.34999999;stroke-miterlimit:4;stroke-dasharray:none"
     d="m 9.273863,39.224383 0,8 0,0 0,-8 0,0 z"
     id="path3880" />
  <path
     inkscape:connector-curvature="0"
     style="fill:#cccccc;stroke:#191919;stroke-width:0.34999999;stroke-miterlimit:4;stroke-dasharray:none"
     d="m 17.27386,39.224383 -7.999997,0 0,0 7.999997,0 0,0 z"
     id="path3882" />
  <path
     inkscape:connector-curvature="0"
     style="fill:#cccccc;stroke:#191919;stroke-width:0.34999999;stroke-miterlimit:4;stroke-dasharray:none"
     d="m 28.14886,47.224383 0,-8 0,0 0,8 0,0 z"
     id="path3884" />
  <path
     inkscape:connector-curvature="0"
     style="fill:#cccccc;stroke:#191919;stroke-width:0.34999999;stroke-miterlimit:4;stroke-dasharray:none"
     d="m 20.14886,47.224383 8,0 0,0 -8,0 0,0 z"
     id="path3886" />
  <path
     inkscape:connector-curvature="0"
     style="fill:#cccccc;stroke:#191919;stroke-width:0.34999999;stroke-miterlimit:4;stroke-dasharray:none"
     d="m 20.14886,39.224383 0,8 0,0 0,-8 0,0 z"
     id="path3888" />
  <path
     inkscape:connector-curvature="0"
     style="fill:#cccccc;stroke:#191919;stroke-width:0.34999999;stroke-miterlimit:4;stroke-dasharray:none"
     d="m 28.14886,39.224383 -8,0 0,0 8,0 0,0 z"
     id="path3890" />
  <path
     inkscape:connector-curvature="0"
     style="fill:#cccccc;stroke:#191919;stroke-width:0.34999999;stroke-miterlimit:4;stroke-dasharray:none"
     d="m 39.02386,47.224383 0,-8 0,0 0,8 0,0 z"
     id="path3892" />
  <path
     inkscape:connector-curvature="0"
     style="fill:#cccccc;stroke:#191919;stroke-width:0.34999999;stroke-miterlimit:4;stroke-dasharray:none"
     d="m 31.02386,47.224383 8,0 0,0 -8,0 0,0 z"
     id="path3894" />
  <path
     inkscape:connector-curvature="0"
     style="fill:#cccccc;stroke:#191919;stroke-width:0.34999999;stroke-miterlimit:4;stroke-dasharray:none"
     d="m 31.02386,39.224383 0,8 0,0 0,-8 0,0 z"
     id="path3896" />
  <path
     inkscape:connector-curvature="0"
     style="fill:#cccccc;stroke:#191919;stroke-width:0.34999999;stroke-miterlimit:4;stroke-dasharray:none"
     d="m 39.02386,39.224383 -8,0 0,0 8,0 0,0 z"
     id="path3898" />
  <path
     inkscape:connector-curvature="0"
     style="fill:#cccccc;stroke:#191919;stroke-width:0.34999999;stroke-miterlimit:4;stroke-dasharray:none"
     d="m 49.89886,47.224383 0,-8 0,0 0,8 0,0 z"
     id="path3900" />
  <path
     inkscape:connector-curvature="0"
     style="fill:#cccccc;stroke:#191919;stroke-width:0.34999999;stroke-miterlimit:4;stroke-dasharray:none"
     d="m 41.89886,47.224383 8,0 0,0 -8,0 0,0 z"
     id="path3902" />
  <path
     inkscape:connector-curvature="0"
     style="fill:#cccccc;stroke:#191919;stroke-width:0.34999999;stroke-miterlimit:4;stroke-dasharray:none"
     d="m 41.89886,39.224383 0,8 0,0 0,-8 0,0 z"
     id="path3904" />
  <path
     inkscape:connector-curvature="0"
     style="fill:#cccccc;stroke:#191919;stroke-width:0.34999999;stroke-miterlimit:4;stroke-dasharray:none"
     d="m 49.89886,39.224383 -8,0 0,0 8,0 0,0 z"
     id="path3906" />
  <path
     inkscape:connector-curvature="0"
     style="fill:#cccccc;stroke:#191919;stroke-width:0.34999999;stroke-miterlimit:4;stroke-dasharray:none"
     d="m 60.77386,47.224383 0,-8 0,0 0,8 0,0 z"
     id="path3908" />
  <path
     inkscape:connector-curvature="0"
     style="fill:#cccccc;stroke:#191919;stroke-width:0.34999999;stroke-miterlimit:4;stroke-dasharray:none"
     d="m 52.77386,47.224383 8,0 0,0 -8,0 0,0 z"
     id="path3910" />
  <path
     inkscape:connector-curvature="0"
     style="fill:#cccccc;stroke:#191919;stroke-width:0.34999999;stroke-miterlimit:4;stroke-dasharray:none"
     d="m 52.77386,39.224383 0,8 0,0 0,-8 0,0 z"
     id="path3912" />
  <path
     inkscape:connector-curvature="0"
     style="fill:#cccccc;stroke:#191919;stroke-width:0.34999999;stroke-miterlimit:4;stroke-dasharray:none"
     d="m 60.77386,39.224383 -8,0 0,0 8,0 0,0 z"
     id="path3914" />
  <path
     inkscape:connector-curvature="0"
     style="fill:#cccccc;stroke:#191919;stroke-width:0.34999999;stroke-miterlimit:4;stroke-dasharray:none"
     d="m 17.27386,36.510097 0,-8 0,0 0,8 0,0 z"
     id="path3916" />
  <path
     inkscape:connector-curvature="0"
     style="fill:#cccccc;stroke:#191919;stroke-width:0.34999999;stroke-miterlimit:4;stroke-dasharray:none"
     d="m 9.273863,36.510097 7.999997,0 0,0 -7.999997,0 0,0 z"
     id="path3918" />
  <path
     inkscape:connector-curvature="0"
     style="fill:#cccccc;stroke:#191919;stroke-width:0.34999999;stroke-miterlimit:4;stroke-dasharray:none"
     d="m 9.273863,28.510097 0,8 0,0 0,-8 0,0 z"
     id="path3920" />
  <path
     inkscape:connector-curvature="0"
     style="fill:#cccccc;stroke:#191919;stroke-width:0.34999999;stroke-miterlimit:4;stroke-dasharray:none"
     d="m 17.27386,28.510097 -7.999997,0 0,0 7.999997,0 0,0 z"
     id="path3922" />
  <path
     inkscape:connector-curvature="0"
     style="fill:#cccccc;stroke:#191919;stroke-width:0.34999999;stroke-miterlimit:4;stroke-dasharray:none"
     d="m 28.14886,36.510097 0,-8 0,0 0,8 0,0 z"
     id="path3924" />
  <path
     inkscape:connector-curvature="0"
     style="fill:#cccccc;stroke:#191919;stroke-width:0.34999999;stroke-miterlimit:4;stroke-dasharray:none"
     d="m 20.14886,36.510097 8,0 0,0 -8,0 0,0 z"
     id="path3926" />
  <path
     inkscape:connector-curvature="0"
     style="fill:#cccccc;stroke:#191919;stroke-width:0.34999999;stroke-miterlimit:4;stroke-dasharray:none"
     d="m 20.14886,28.510097 0,8 0,0 0,-8 0,0 z"
     id="path3928" />
  <path
     inkscape:connector-curvature="0"
     style="fill:#cccccc;stroke:#191919;stroke-width:0.34999999;stroke-miterlimit:4;stroke-dasharray:none"
     d="m 28.14886,28.510097 -8,0 0,0 8,0 0,0 z"
     id="path3930" />
  <path
     inkscape:connector-curvature="0"
     style="fill:#cccccc;stroke:#191919;stroke-width:0.34999999;stroke-miterlimit:4;stroke-dasharray:none"
     d="m 39.02386,36.510097 0,-8 0,0 0,8 0,0 z"
     id="path3932" />
  <path
     inkscape:connector-curvature="0"
     style="fill:#cccccc;stroke:#191919;stroke-width:0.34999999;stroke-miterlimit:4;stroke-dasharray:none"
     d="m 31.02386,36.510097 8,0 0,0 -8,0 0,0 z"
     id="path3934" />
  <path
     inkscape:connector-curvature="0"
     style="fill:#cccccc;stroke:#191919;stroke-width:0.34999999;stroke-miterlimit:4;stroke-dasharray:none"
     d="m 31.02386,28.510097 0,8 0,0 0,-8 0,0 z"
     id="path3936" />
  <path
     inkscape:connector-curvature="0"
     style="fill:#cccccc;stroke:#191919;stroke-width:0.34999999;stroke-miterlimit:4;stroke-dasharray:none"
     d="m 39.02386,28.510097 -8,0 0,0 8,0 0,0 z"
     id="path3938" />
  <path
     inkscape:connector-curvature="0"
     style="fill:#cccccc;stroke:#191919;stroke-width:0.34999999;stroke-miterlimit:4;stroke-dasharray:none"
     d="m 49.89886,36.510097 0,-8 0,0 0,8 0,0 z"
     id="path3940" />
  <path
     inkscape:connector-curvature="0"
     style="fill:#cccccc;stroke:#191919;stroke-width:0.34999999;stroke-miterlimit:4;stroke-dasharray:none"
     d="m 41.89886,36.510097 8,0 0,0 -8,0 0,0 z"
     id="path3942" />
  <path
     inkscape:connector-curvature="0"
     style="fill:#cccccc;stroke:#191919;stroke-width:0.34999999;stroke-miterlimit:4;stroke-dasharray:none"
     d="m 41.89886,28.510097 0,8 0,0 0,-8 0,0 z"
     id="path3944" />
  <path
     inkscape:connector-curvature="0"
     style="fill:#cccccc;stroke:#191919;stroke-width:0.34999999;stroke-miterlimit:4;stroke-dasharray:none"
     d="m 49.89886,28.510097 -8,0 0,0 8,0 0,0 z"
     id="path3946" />
  <path
     inkscape:connector-curvature="0"
     style="fill:#cccccc;stroke:#191919;stroke-width:0.34999999;stroke-miterlimit:4;stroke-dasharray:none"
     d="m 60.77386,36.510097 0,-8 0,0 0,8 0,0 z"
     id="path3948" />
  <path
     inkscape:connector-curvature="0"
     style="fill:#cccccc;stroke:#191919;stroke-width:0.34999999;stroke-miterlimit:4;stroke-dasharray:none"
     d="m 52.77386,36.510097 8,0 0,0 -8,0 0,0 z"
     id="path3950" />
  <path
     inkscape:connector-curvature="0"
     style="fill:#cccccc;stroke:#191919;stroke-width:0.34999999;stroke-miterlimit:4;stroke-dasharray:none"
     d="m 52.77386,28.510097 0,8 0,0 0,-8 0,0 z"
     id="path3952" />
  <path
     inkscape:connector-curvature="0"
     style="fill:#cccccc;stroke:#191919;stroke-width:0.34999999;stroke-miterlimit:4;stroke-dasharray:none"
     d="m 60.77386,28.510097 -8,0 0,0 8,0 0,0 z"
     id="path3954" />
  <path
     inkscape:connector-curvature="0"
     style="fill:#cccccc;stroke:#191919;stroke-width:0.34999999;stroke-miterlimit:4;stroke-dasharray:none"
     d="m 17.27386,25.795812 0,-8 0,0 0,8 0,0 z"
     id="path3956" />
  <path
     inkscape:connector-curvature="0"
     style="fill:#cccccc;stroke:#191919;stroke-width:0.34999999;stroke-miterlimit:4;stroke-dasharray:none"
     d="m 9.273863,25.795812 7.999997,0 0,0 -7.999997,0 0,0 z"
     id="path3958" />
  <path
     inkscape:connector-curvature="0"
     style="fill:#cccccc;stroke:#191919;stroke-width:0.34999999;stroke-miterlimit:4;stroke-dasharray:none"
     d="m 9.273863,17.795812 0,8 0,0 0,-8 0,0 z"
     id="path3960" />
  <path
     inkscape:connector-curvature="0"
     style="fill:#cccccc;stroke:#191919;stroke-width:0.34999999;stroke-miterlimit:4;stroke-dasharray:none"
     d="m 17.27386,17.795812 -7.999997,0 0,0 7.999997,0 0,0 z"
     id="path3962" />
  <path
     inkscape:connector-curvature="0"
     style="fill:#cccccc;stroke:#191919;stroke-width:0.34999999;stroke-miterlimit:4;stroke-dasharray:none"
     d="m 28.14886,25.795812 0,-8 0,0 0,8 0,0 z"
     id="path3964" />
  <path
     inkscape:connector-curvature="0"
     style="fill:#cccccc;stroke:#191919;stroke-width:0.34999999;stroke-miterlimit:4;stroke-dasharray:none"
     d="m 20.14886,25.795812 8,0 0,0 -8,0 0,0 z"
     id="path3966" />
  <path
     inkscape:connector-curvature="0"
     style="fill:#cccccc;stroke:#191919;stroke-width:0.34999999;stroke-miterlimit:4;stroke-dasharray:none"
     d="m 20.14886,17.795812 0,8 0,0 0,-8 0,0 z"
     id="path3968" />
  <path
     inkscape:connector-curvature="0"
     style="fill:#cccccc;stroke:#191919;stroke-width:0.34999999;stroke-miterlimit:4;stroke-dasharray:none"
     d="m 28.14886,17.795812 -8,0 0,0 8,0 0,0 z"
     id="path3970" />
  <path
     inkscape:connector-curvature="0"
     style="fill:#cccccc;stroke:#191919;stroke-width:0.34999999;stroke-miterlimit:4;stroke-dasharray:none"
     d="m 39.02386,25.795812 0,-8 0,0 0,8 0,0 z"
     id="path3972" />
  <path
     inkscape:connector-curvature="0"
     style="fill:#cccccc;stroke:#191919;stroke-width:0.34999999;stroke-miterlimit:4;stroke-dasharray:none"
     d="m 31.02386,25.795812 8,0 0,0 -8,0 0,0 z"
     id="path3974" />
  <path
     inkscape:connector-curvature="0"
     style="fill:#cccccc;stroke:#191919;stroke-width:0.34999999;stroke-miterlimit:4;stroke-dasharray:none"
     d="m 31.02386,17.795812 0,8 0,0 0,-8 0,0 z"
     id="path3976" />
  <path
     inkscape:connector-curvature="0"
     style="fill:#cccccc;stroke:#191919;stroke-width:0.34999999;stroke-miterlimit:4;stroke-dasharray:none"
     d="m 39.02386,17.795812 -8,0 0,0 8,0 0,0 z"
     id="path3978" />
  <path
     inkscape:connector-curvature="0"
     style="fill:#cccccc;stroke:#191919;stroke-width:0.34999999;stroke-miterlimit:4;stroke-dasharray:none"
     d="m 49.89886,25.795812 0,-8 0,0 0,8 0,0 z"
     id="path3980" />
  <path
     inkscape:connector-curvature="0"
     style="fill:#cccccc;stroke:#191919;stroke-width:0.34999999;stroke-miterlimit:4;stroke-dasharray:none"
     d="m 41.89886,25.795812 8,0 0,0 -8,0 0,0 z"
     id="path3982" />
  <path
     inkscape:connector-curvature="0"
     style="fill:#cccccc;stroke:#191919;stroke-width:0.34999999;stroke-miterlimit:4;stroke-dasharray:none"
     d="m 41.89886,17.795812 0,8 0,0 0,-8 0,0 z"
     id="path3984" />
  <path
     inkscape:connector-curvature="0"
     style="fill:#cccccc;stroke:#191919;stroke-width:0.34999999;stroke-miterlimit:4;stroke-dasharray:none"
     d="m 49.89886,17.795812 -8,0 0,0 8,0 0,0 z"
     id="path3986" />
  <path
     inkscape:connector-curvature="0"
     style="fill:#cccccc;stroke:#191919;stroke-width:0.34999999;stroke-miterlimit:4;stroke-dasharray:none"
     d="m 60.77386,25.795812 0,-8 0,0 0,8 0,0 z"
     id="path3988" />
  <path
     inkscape:connector-curvature="0"
     style="fill:#cccccc;stroke:#191919;stroke-width:0.34999999;stroke-miterlimit:4;stroke-dasharray:none"
     d="m 52.77386,25.795812 8,0 0,0 -8,0 0,0 z"
     id="path3990" />
  <path
     inkscape:connector-curvature="0"
     style="fill:#cccccc;stroke:#191919;stroke-width:0.34999999;stroke-miterlimit:4;stroke-dasharray:none"
     d="m 52.77386,17.795812 0,8 0,0 0,-8 0,0 z"
     id="path3992" />
  <path
     inkscape:connector-curvature="0"
     style="fill:#cccccc;stroke:#191919;stroke-width:0.34999999;stroke-miterlimit:4;stroke-dasharray:none"
     d="m 60.77386,17.795812 -8,0 0,0 8,0 0,0 z"
     id="path3994" />
  <path
     inkscape:connector-curvature="0"
     style="fill:#cccccc;stroke:#191919;stroke-width:0.34999999;stroke-miterlimit:4;stroke-dasharray:none"
     d="m 17.27386,15.081526 0,-8.0000002 0,0 0,8.0000002 0,0 z"
     id="path3996" />
  <path
     inkscape:connector-curvature="0"
     style="fill:#cccccc;stroke:#191919;stroke-width:0.34999999;stroke-miterlimit:4;stroke-dasharray:none"
     d="m 9.273863,15.081526 7.999997,0 0,0 -7.999997,0 0,0 z"
     id="path3998" />
  <path
     inkscape:connector-curvature="0"
     style="fill:#cccccc;stroke:#191919;stroke-width:0.34999999;stroke-miterlimit:4;stroke-dasharray:none"
     d="m 9.273863,7.0815258 0,8.0000002 0,0 0,-8.0000002 0,0 z"
     id="path4000" />
  <path
     inkscape:connector-curvature="0"
     style="fill:#cccccc;stroke:#191919;stroke-width:0.34999999;stroke-miterlimit:4;stroke-dasharray:none"
     d="m 17.27386,7.0815258 -7.999997,0 0,0 7.999997,0 0,0 z"
     id="path4002" />
  <path
     inkscape:connector-curvature="0"
     style="fill:#cccccc;stroke:#191919;stroke-width:0.34999999;stroke-miterlimit:4;stroke-dasharray:none"
     d="m 28.14886,15.081526 0,-8.0000002 0,0 0,8.0000002 0,0 z"
     id="path4004" />
  <path
     inkscape:connector-curvature="0"
     style="fill:#cccccc;stroke:#191919;stroke-width:0.34999999;stroke-miterlimit:4;stroke-dasharray:none"
     d="m 20.14886,15.081526 8,0 0,0 -8,0 0,0 z"
     id="path4006" />
  <path
     inkscape:connector-curvature="0"
     style="fill:#cccccc;stroke:#191919;stroke-width:0.34999999;stroke-miterlimit:4;stroke-dasharray:none"
     d="m 20.14886,7.0815258 0,8.0000002 0,0 0,-8.0000002 0,0 z"
     id="path4008" />
  <path
     inkscape:connector-curvature="0"
     style="fill:#cccccc;stroke:#191919;stroke-width:0.34999999;stroke-miterlimit:4;stroke-dasharray:none"
     d="m 28.14886,7.0815258 -8,0 0,0 8,0 0,0 z"
     id="path4010" />
  <path
     inkscape:connector-curvature="0"
     style="fill:#cccccc;stroke:#191919;stroke-width:0.34999999;stroke-miterlimit:4;stroke-dasharray:none"
     d="m 39.02386,15.081526 0,-8.0000002 0,0 0,8.0000002 0,0 z"
     id="path4012" />
  <path
     inkscape:connector-curvature="0"
     style="fill:#cccccc;stroke:#191919;stroke-width:0.34999999;stroke-miterlimit:4;stroke-dasharray:none"
     d="m 31.02386,15.081526 8,0 0,0 -8,0 0,0 z"
     id="path4014" />
  <path
     inkscape:connector-curvature="0"
     style="fill:#cccccc;stroke:#191919;stroke-width:0.34999999;stroke-miterlimit:4;stroke-dasharray:none"
     d="m 31.02386,7.0815258 0,8.0000002 0,0 0,-8.0000002 0,0 z"
     id="path4016" />
  <path
     inkscape:connector-curvature="0"
     style="fill:#cccccc;stroke:#191919;stroke-width:0.34999999;stroke-miterlimit:4;stroke-dasharray:none"
     d="m 39.02386,7.0815258 -8,0 0,0 8,0 0,0 z"
     id="path4018" />
  <path
     inkscape:connector-curvature="0"
     style="fill:#cccccc;stroke:#191919;stroke-width:0.34999999;stroke-miterlimit:4;stroke-dasharray:none"
     d="m 49.89886,15.081526 0,-8.0000002 0,0 0,8.0000002 0,0 z"
     id="path4020" />
  <path
     inkscape:connector-curvature="0"
     style="fill:#cccccc;stroke:#191919;stroke-width:0.34999999;stroke-miterlimit:4;stroke-dasharray:none"
     d="m 41.89886,15.081526 8,0 0,0 -8,0 0,0 z"
     id="path4022" />
  <path
     inkscape:connector-curvature="0"
     style="fill:#cccccc;stroke:#191919;stroke-width:0.34999999;stroke-miterlimit:4;stroke-dasharray:none"
     d="m 41.89886,7.0815258 0,8.0000002 0,0 0,-8.0000002 0,0 z"
     id="path4024" />
  <path
     inkscape:connector-curvature="0"
     style="fill:#cccccc;stroke:#191919;stroke-width:0.34999999;stroke-miterlimit:4;stroke-dasharray:none"
     d="m 49.89886,7.0815258 -8,0 0,0 8,0 0,0 z"
     id="path4026" />
  <path
     inkscape:connector-curvature="0"
     style="fill:#cccccc;stroke:#191919;stroke-width:0.34999999;stroke-miterlimit:4;stroke-dasharray:none"
     d="m 60.77386,15.081526 0,-8.0000002 0,0 0,8.0000002 0,0 z"
     id="path4028" />
  <path
     inkscape:connector-curvature="0"
     style="fill:#cccccc;stroke:#191919;stroke-width:0.34999999;stroke-miterlimit:4;stroke-dasharray:none"
     d="m 52.77386,15.081526 8,0 0,0 -8,0 0,0 z"
     id="path4030" />
  <path
     inkscape:connector-curvature="0"
     style="fill:#cccccc;stroke:#191919;stroke-width:0.34999999;stroke-miterlimit:4;stroke-dasharray:none"
     d="m 52.77386,7.0815258 0,8.0000002 0,0 0,-8.0000002 0,0 z"
     id="path4032" />
  <path
     inkscape:connector-curvature="0"
     style="fill:#cccccc;stroke:#191919;stroke-width:0.34999999;stroke-miterlimit:4;stroke-dasharray:none"
     d="m 60.77386,7.0815258 -8,0 0,0 8,0 0,0 z"
     id="path4034" />
  <path
     inkscape:connector-curvature="0"
     style="fill:#cccccc;stroke:#191919;stroke-width:0.34999999;stroke-miterlimit:4;stroke-dasharray:none"
     d="m 17.27386,90.08152 0,-7.999995 0,0 0,7.999995 0,0 z"
     id="path4036" />
  <path
     inkscape:connector-curvature="0"
     style="fill:#cccccc;stroke:#191919;stroke-width:0.34999999;stroke-miterlimit:4;stroke-dasharray:none"
     d="m 9.273863,90.08152 7.999997,0 0,0 -7.999997,0 0,0 z"
     id="path4038" />
  <path
     inkscape:connector-curvature="0"
     style="fill:#cccccc;stroke:#191919;stroke-width:0.34999999;stroke-miterlimit:4;stroke-dasharray:none"
     d="m 17.27386,82.081525 -7.999997,0 0,0 7.999997,0 0,0 z"
     id="path4040" />
  <path
     inkscape:connector-curvature="0"
     style="fill:#cccccc;stroke:#191919;stroke-width:0.34999999;stroke-miterlimit:4;stroke-dasharray:none"
     d="m 9.273863,82.081525 0,7.999995 0,0 0,-7.999995 0,0 z"
     id="path4042" />
  <path
     inkscape:connector-curvature="0"
     style="fill:#cccccc;stroke:#191919;stroke-width:0.34999999;stroke-miterlimit:4;stroke-dasharray:none"
     d="m 66.77386,73.081526 0,0 0,11.999999 0,0 0,-11.999999 z"
     id="path4044" />
  <path
     inkscape:connector-curvature="0"
     style="fill:#cccccc;stroke:#191919;stroke-width:0.34999999;stroke-miterlimit:4;stroke-dasharray:none"
     d="m 48.02386,99.08152 0,0 0,-3 0,0 0,3 z"
     id="path4046" />
  <path
     inkscape:connector-curvature="0"
     style="fill:#cccccc;stroke:#191919;stroke-width:0.34999999;stroke-miterlimit:4;stroke-dasharray:none"
     d="m 69.77386,73.081526 0,0 -3,0 0,0 3,0 z"
     id="path4048" />
  <path
     inkscape:connector-curvature="0"
     style="fill:#cccccc;stroke:#191919;stroke-width:0.34999999;stroke-miterlimit:4;stroke-dasharray:none"
     d="m 48.02386,96.08152 0,0 -9,0 0,0 9,0 z"
     id="path4050" />
  <path
     inkscape:connector-curvature="0"
     style="fill:#cccccc;stroke:#191919;stroke-width:0.34999999;stroke-miterlimit:4;stroke-dasharray:none"
     d="m 69.77386,61.081526 0,0 0,12 0,0 0,-12 z"
     id="path4052" />
  <path
     inkscape:connector-curvature="0"
     style="fill:#cccccc;stroke:#191919;stroke-width:0.34999999;stroke-miterlimit:4;stroke-dasharray:none"
     d="m 39.02386,96.08152 0,0 0,3 0,0 0,-3 z"
     id="path4054" />
  <path
     inkscape:connector-curvature="0"
     style="fill:#cccccc;stroke:#191919;stroke-width:0.34999999;stroke-miterlimit:4;stroke-dasharray:none"
     d="m 66.77386,61.081526 0,0 3,0 0,0 -3,0 z"
     id="path4056" />
  <path
     inkscape:connector-curvature="0"
     style="fill:#cccccc;stroke:#191919;stroke-width:0.34999999;stroke-miterlimit:4;stroke-dasharray:none"
     d="m 39.02386,99.08152 0,0 -8,0 0,0 8,0 z"
     id="path4058" />
  <path
     inkscape:connector-curvature="0"
     style="fill:#cccccc;stroke:#191919;stroke-width:0.34999999;stroke-miterlimit:4;stroke-dasharray:none"
     d="m 66.77386,49.081526 0,0 0,12 0,0 0,-12 z"
     id="path4060" />
  <path
     inkscape:connector-curvature="0"
     style="fill:#cccccc;stroke:#191919;stroke-width:0.34999999;stroke-miterlimit:4;stroke-dasharray:none"
     d="m 31.02386,99.08152 0,0 0,-3 0,0 0,3 z"
     id="path4062" />
  <path
     inkscape:connector-curvature="0"
     style="fill:#cccccc;stroke:#191919;stroke-width:0.34999999;stroke-miterlimit:4;stroke-dasharray:none"
     d="m 69.77386,49.081526 0,0 -3,0 0,0 3,0 z"
     id="path4064" />
  <path
     inkscape:connector-curvature="0"
     style="fill:#cccccc;stroke:#191919;stroke-width:0.34999999;stroke-miterlimit:4;stroke-dasharray:none"
     d="m 31.02386,96.08152 0,0 -9,0 0,0 9,0 z"
     id="path4066" />
  <path
     inkscape:connector-curvature="0"
     style="fill:#cccccc;stroke:#191919;stroke-width:0.34999999;stroke-miterlimit:4;stroke-dasharray:none"
     d="m 69.77386,37.081526 0,0 0,12 0,0 0,-12 z"
     id="path4068" />
  <path
     inkscape:connector-curvature="0"
     style="fill:#cccccc;stroke:#191919;stroke-width:0.34999999;stroke-miterlimit:4;stroke-dasharray:none"
     d="m 22.02386,96.08152 0,0 0,3 0,0 0,-3 z"
     id="path4070" />
  <path
     inkscape:connector-curvature="0"
     style="fill:#cccccc;stroke:#191919;stroke-width:0.34999999;stroke-miterlimit:4;stroke-dasharray:none"
     d="m 66.77386,37.081526 0,0 3,0 0,0 -3,0 z"
     id="path4072" />
  <path
     inkscape:connector-curvature="0"
     style="fill:#cccccc;stroke:#191919;stroke-width:0.34999999;stroke-miterlimit:4;stroke-dasharray:none"
     d="m 22.02386,99.08152 0,0 -7.999997,0 0,0 7.999997,0 z"
     id="path4074" />
  <path
     inkscape:connector-curvature="0"
     style="fill:#cccccc;stroke:#191919;stroke-width:0.34999999;stroke-miterlimit:4;stroke-dasharray:none"
     d="m 66.77386,25.081526 0,0 0,12 0,0 0,-12 z"
     id="path4076" />
  <path
     inkscape:connector-curvature="0"
     style="fill:#cccccc;stroke:#191919;stroke-width:0.34999999;stroke-miterlimit:4;stroke-dasharray:none"
     d="m 14.023863,99.08152 0,0 0,-3 0,0 0,3 z"
     id="path4078" />
  <path
     inkscape:connector-curvature="0"
     style="fill:#cccccc;stroke:#191919;stroke-width:0.34999999;stroke-miterlimit:4;stroke-dasharray:none"
     d="m 69.77386,25.081526 0,0 -3,0 0,0 3,0 z"
     id="path4080" />
  <path
     inkscape:connector-curvature="0"
     style="fill:#cccccc;stroke:#191919;stroke-width:0.34999999;stroke-miterlimit:4;stroke-dasharray:none"
     d="m 14.023863,96.08152 0,0 -10.75,0 0,0 10.75,0 z"
     id="path4082" />
  <path
     inkscape:connector-curvature="0"
     style="fill:#cccccc;stroke:#191919;stroke-width:0.34999999;stroke-miterlimit:4;stroke-dasharray:none"
     d="m 69.77386,13.081526 0,0 0,12 0,0 0,-12 z"
     id="path4084" />
  <path
     inkscape:connector-curvature="0"
     style="fill:#cccccc;stroke:#191919;stroke-width:0.34999999;stroke-miterlimit:4;stroke-dasharray:none"
     d="m 3.273863,96.08152 0,0 0,-10.999995 0,0 0,10.999995 z"
     id="path4086" />
  <path
     inkscape:connector-curvature="0"
     style="fill:#cccccc;stroke:#191919;stroke-width:0.34999999;stroke-miterlimit:4;stroke-dasharray:none"
     d="m 66.77386,13.081526 0,0 3,0 0,0 -3,0 z"
     id="path4088" />
  <path
     inkscape:connector-curvature="0"
     style="fill:#cccccc;stroke:#191919;stroke-width:0.34999999;stroke-miterlimit:4;stroke-dasharray:none"
     d="m 3.273863,85.081525 0,0 -3.00000002,0 0,0 3.00000002,0 z"
     id="path4090" />
  <path
     inkscape:connector-curvature="0"
     style="fill:#cccccc;stroke:#191919;stroke-width:0.34999999;stroke-miterlimit:4;stroke-dasharray:none"
     d="m 66.77386,1.0815258 0,0 0,12.0000002 0,0 0,-12.0000002 z"
     id="path4092" />
  <path
     inkscape:connector-curvature="0"
     style="fill:#cccccc;stroke:#191919;stroke-width:0.34999999;stroke-miterlimit:4;stroke-dasharray:none"
     d="m 0.27386298,85.081525 0,0 0,-11.999999 0,0 0,11.999999 z"
     id="path4094" />
  <path
     inkscape:connector-curvature="0"
     style="fill:#cccccc;stroke:#191919;stroke-width:0.34999999;stroke-miterlimit:4;stroke-dasharray:none"
     d="m 0.27386298,1.0815258 0,0 66.49999702,0 0,0 -66.49999702,0 z"
     id="path4096" />
  <path
     inkscape:connector-curvature="0"
     style="fill:#cccccc;stroke:#191919;stroke-width:0.34999999;stroke-miterlimit:4;stroke-dasharray:none"
     d="m 0.27386298,73.081526 0,0 3.00000002,0 0,0 -3.00000002,0 z"
     id="path4098" />
  <path
     inkscape:connector-curvature="0"
     style="fill:#cccccc;stroke:#191919;stroke-width:0.34999999;stroke-miterlimit:4;stroke-dasharray:none"
     d="m 0.27386298,13.081526 0,0 0,-12.0000002 0,0 0,12.0000002 z"
     id="path4100" />
  <path
     inkscape:connector-curvature="0"
     style="fill:#cccccc;stroke:#191919;stroke-width:0.34999999;stroke-miterlimit:4;stroke-dasharray:none"
     d="m 3.273863,73.081526 0,0 0,-12 0,0 0,12 z"
     id="path4102" />
  <path
     inkscape:connector-curvature="0"
     style="fill:#cccccc;stroke:#191919;stroke-width:0.34999999;stroke-miterlimit:4;stroke-dasharray:none"
     d="m 3.273863,13.081526 0,0 -3.00000002,0 0,0 3.00000002,0 z"
     id="path4104" />
  <path
     inkscape:connector-curvature="0"
     style="fill:#cccccc;stroke:#191919;stroke-width:0.34999999;stroke-miterlimit:4;stroke-dasharray:none"
     d="m 3.273863,61.081526 0,0 -3.00000002,0 0,0 3.00000002,0 z"
     id="path4106" />
  <path
     inkscape:connector-curvature="0"
     style="fill:#cccccc;stroke:#191919;stroke-width:0.34999999;stroke-miterlimit:4;stroke-dasharray:none"
     d="m 3.273863,25.081526 0,0 0,-12 0,0 0,12 z"
     id="path4108" />
  <path
     inkscape:connector-curvature="0"
     style="fill:#cccccc;stroke:#191919;stroke-width:0.34999999;stroke-miterlimit:4;stroke-dasharray:none"
     d="m 0.27386298,61.081526 0,0 0,-12 0,0 0,12 z"
     id="path4110" />
  <path
     inkscape:connector-curvature="0"
     style="fill:#cccccc;stroke:#191919;stroke-width:0.34999999;stroke-miterlimit:4;stroke-dasharray:none"
     d="m 0.27386298,25.081526 0,0 3.00000002,0 0,0 -3.00000002,0 z"
     id="path4112" />
  <path
     inkscape:connector-curvature="0"
     style="fill:#cccccc;stroke:#191919;stroke-width:0.34999999;stroke-miterlimit:4;stroke-dasharray:none"
     d="m 0.27386298,49.081526 0,0 3.00000002,0 0,0 -3.00000002,0 z"
     id="path4114" />
  <path
     inkscape:connector-curvature="0"
     style="fill:#cccccc;stroke:#191919;stroke-width:0.34999999;stroke-miterlimit:4;stroke-dasharray:none"
     d="m 0.27386298,37.081526 0,0 0,-12 0,0 0,12 z"
     id="path4116" />
  <path
     inkscape:connector-curvature="0"
     style="fill:#cccccc;stroke:#191919;stroke-width:0.34999999;stroke-miterlimit:4;stroke-dasharray:none"
     d="m 3.273863,49.081526 0,0 0,-12 0,0 0,12 z"
     id="path4118" />
  <path
     inkscape:connector-curvature="0"
     style="fill:#cccccc;stroke:#191919;stroke-width:0.34999999;stroke-miterlimit:4;stroke-dasharray:none"
     d="m 3.273863,37.081526 0,0 -3.00000002,0 0,0 3.00000002,0 z"
     id="path4120" />
  <g
     transform="translate(35.445,33.39) scale(1,-1)"
     id="g4223">
    <path
       id="Sketch001"
       d="M -25.75 -15.0 L -17.75 -15.0 L -17.75 -23.0 L -25.75 -23.0 L -25.75 -15.0 "
       stroke="#ffffff"
       stroke-width="0.35 px"
       style="stroke-width:0.35;stroke-miterlimit:4;stroke-dasharray:none;fill:none" />
  </g>
</svg>
